<mxfile host="app.diagrams.net" modified="2024-06-01T01:58:54.108Z" agent="Mozilla/5.0 (Windows NT 10.0; Win64; x64) AppleWebKit/537.36 (KHTML, like Gecko) Chrome/125.0.0.0 Safari/537.36 Edg/125.0.0.0" etag="TB6NbhH00u_p6ixnFi8q" version="24.4.9" type="github">
  <diagram name="第 1 页" id="1SdxMEk3Wz8TfMCFd36h">
    <mxGraphModel dx="3158" dy="1049" grid="1" gridSize="10" guides="1" tooltips="1" connect="1" arrows="1" fold="1" page="1" pageScale="1" pageWidth="827" pageHeight="1169" math="0" shadow="0">
      <root>
        <mxCell id="0" />
        <mxCell id="1" parent="0" />
        <mxCell id="NNuLc5NoA_AwvT8g1Wba-3" value="" style="edgeStyle=orthogonalEdgeStyle;rounded=0;orthogonalLoop=1;jettySize=auto;html=1;" edge="1" parent="1" source="NNuLc5NoA_AwvT8g1Wba-1" target="NNuLc5NoA_AwvT8g1Wba-2">
          <mxGeometry relative="1" as="geometry" />
        </mxCell>
        <mxCell id="NNuLc5NoA_AwvT8g1Wba-1" value="&lt;font style=&quot;font-size: 14px;&quot;&gt;开始&lt;/font&gt;" style="strokeWidth=2;html=1;shape=mxgraph.flowchart.terminator;whiteSpace=wrap;" vertex="1" parent="1">
          <mxGeometry x="340" y="110" width="100" height="60" as="geometry" />
        </mxCell>
        <mxCell id="NNuLc5NoA_AwvT8g1Wba-5" value="" style="edgeStyle=orthogonalEdgeStyle;rounded=0;orthogonalLoop=1;jettySize=auto;html=1;" edge="1" parent="1" source="NNuLc5NoA_AwvT8g1Wba-2" target="NNuLc5NoA_AwvT8g1Wba-4">
          <mxGeometry relative="1" as="geometry" />
        </mxCell>
        <mxCell id="NNuLc5NoA_AwvT8g1Wba-2" value="&lt;font style=&quot;font-size: 14px;&quot;&gt;进入登录界面&lt;/font&gt;" style="whiteSpace=wrap;html=1;strokeWidth=2;" vertex="1" parent="1">
          <mxGeometry x="330" y="250" width="120" height="60" as="geometry" />
        </mxCell>
        <mxCell id="NNuLc5NoA_AwvT8g1Wba-7" value="" style="edgeStyle=orthogonalEdgeStyle;rounded=0;orthogonalLoop=1;jettySize=auto;html=1;exitX=0;exitY=0.5;exitDx=0;exitDy=0;" edge="1" parent="1" source="NNuLc5NoA_AwvT8g1Wba-4" target="NNuLc5NoA_AwvT8g1Wba-6">
          <mxGeometry relative="1" as="geometry" />
        </mxCell>
        <mxCell id="NNuLc5NoA_AwvT8g1Wba-8" value="&lt;font style=&quot;font-size: 14px;&quot;&gt;Y&lt;/font&gt;" style="edgeLabel;html=1;align=center;verticalAlign=middle;resizable=0;points=[];" vertex="1" connectable="0" parent="NNuLc5NoA_AwvT8g1Wba-7">
          <mxGeometry x="-0.2622" y="1" relative="1" as="geometry">
            <mxPoint as="offset" />
          </mxGeometry>
        </mxCell>
        <mxCell id="NNuLc5NoA_AwvT8g1Wba-10" value="" style="edgeStyle=orthogonalEdgeStyle;rounded=0;orthogonalLoop=1;jettySize=auto;html=1;" edge="1" parent="1" source="NNuLc5NoA_AwvT8g1Wba-4" target="NNuLc5NoA_AwvT8g1Wba-9">
          <mxGeometry relative="1" as="geometry" />
        </mxCell>
        <mxCell id="NNuLc5NoA_AwvT8g1Wba-11" value="&lt;font style=&quot;font-size: 14px;&quot;&gt;N&lt;/font&gt;" style="edgeLabel;html=1;align=center;verticalAlign=middle;resizable=0;points=[];" vertex="1" connectable="0" parent="NNuLc5NoA_AwvT8g1Wba-10">
          <mxGeometry x="-0.005" y="-3" relative="1" as="geometry">
            <mxPoint as="offset" />
          </mxGeometry>
        </mxCell>
        <mxCell id="NNuLc5NoA_AwvT8g1Wba-4" value="&lt;font style=&quot;font-size: 14px;&quot;&gt;是否拥有账号&lt;/font&gt;" style="rhombus;whiteSpace=wrap;html=1;strokeWidth=2;" vertex="1" parent="1">
          <mxGeometry x="330" y="380" width="120" height="80" as="geometry" />
        </mxCell>
        <mxCell id="NNuLc5NoA_AwvT8g1Wba-16" value="" style="edgeStyle=orthogonalEdgeStyle;rounded=0;orthogonalLoop=1;jettySize=auto;html=1;" edge="1" parent="1" source="NNuLc5NoA_AwvT8g1Wba-6" target="NNuLc5NoA_AwvT8g1Wba-15">
          <mxGeometry relative="1" as="geometry" />
        </mxCell>
        <mxCell id="NNuLc5NoA_AwvT8g1Wba-6" value="&lt;font style=&quot;font-size: 14px;&quot;&gt;输入账号、密码和验证码&lt;/font&gt;" style="whiteSpace=wrap;html=1;strokeWidth=2;" vertex="1" parent="1">
          <mxGeometry x="110" y="498.95" width="120" height="60" as="geometry" />
        </mxCell>
        <mxCell id="NNuLc5NoA_AwvT8g1Wba-12" style="edgeStyle=orthogonalEdgeStyle;rounded=0;orthogonalLoop=1;jettySize=auto;html=1;exitX=0.5;exitY=0;exitDx=0;exitDy=0;entryX=1;entryY=0.5;entryDx=0;entryDy=0;" edge="1" parent="1" source="NNuLc5NoA_AwvT8g1Wba-9" target="NNuLc5NoA_AwvT8g1Wba-2">
          <mxGeometry relative="1" as="geometry" />
        </mxCell>
        <mxCell id="NNuLc5NoA_AwvT8g1Wba-9" value="&lt;font style=&quot;font-size: 14px;&quot;&gt;注册新账号&lt;/font&gt;" style="whiteSpace=wrap;html=1;strokeWidth=2;" vertex="1" parent="1">
          <mxGeometry x="530" y="390" width="120" height="60" as="geometry" />
        </mxCell>
        <mxCell id="NNuLc5NoA_AwvT8g1Wba-18" value="" style="edgeStyle=orthogonalEdgeStyle;rounded=0;orthogonalLoop=1;jettySize=auto;html=1;" edge="1" parent="1" source="NNuLc5NoA_AwvT8g1Wba-15" target="NNuLc5NoA_AwvT8g1Wba-17">
          <mxGeometry relative="1" as="geometry" />
        </mxCell>
        <mxCell id="NNuLc5NoA_AwvT8g1Wba-19" value="&lt;font style=&quot;font-size: 14px;&quot;&gt;N&lt;/font&gt;" style="edgeLabel;html=1;align=center;verticalAlign=middle;resizable=0;points=[];" vertex="1" connectable="0" parent="NNuLc5NoA_AwvT8g1Wba-18">
          <mxGeometry x="-0.28" relative="1" as="geometry">
            <mxPoint as="offset" />
          </mxGeometry>
        </mxCell>
        <mxCell id="NNuLc5NoA_AwvT8g1Wba-22" value="" style="edgeStyle=orthogonalEdgeStyle;rounded=0;orthogonalLoop=1;jettySize=auto;html=1;entryX=0;entryY=0.5;entryDx=0;entryDy=0;" edge="1" parent="1" source="NNuLc5NoA_AwvT8g1Wba-15" target="NNuLc5NoA_AwvT8g1Wba-21">
          <mxGeometry relative="1" as="geometry" />
        </mxCell>
        <mxCell id="NNuLc5NoA_AwvT8g1Wba-23" value="&lt;font style=&quot;font-size: 14px;&quot;&gt;Y&lt;/font&gt;" style="edgeLabel;html=1;align=center;verticalAlign=middle;resizable=0;points=[];" vertex="1" connectable="0" parent="NNuLc5NoA_AwvT8g1Wba-22">
          <mxGeometry x="-0.2844" y="-2" relative="1" as="geometry">
            <mxPoint as="offset" />
          </mxGeometry>
        </mxCell>
        <mxCell id="NNuLc5NoA_AwvT8g1Wba-15" value="&lt;font style=&quot;font-size: 14px;&quot;&gt;验证码是否正确&lt;/font&gt;" style="rhombus;whiteSpace=wrap;html=1;strokeWidth=2;" vertex="1" parent="1">
          <mxGeometry x="110" y="650" width="120" height="80" as="geometry" />
        </mxCell>
        <mxCell id="NNuLc5NoA_AwvT8g1Wba-20" style="edgeStyle=orthogonalEdgeStyle;rounded=0;orthogonalLoop=1;jettySize=auto;html=1;exitX=0.5;exitY=0;exitDx=0;exitDy=0;entryX=0;entryY=0.5;entryDx=0;entryDy=0;" edge="1" parent="1" source="NNuLc5NoA_AwvT8g1Wba-17" target="NNuLc5NoA_AwvT8g1Wba-6">
          <mxGeometry relative="1" as="geometry" />
        </mxCell>
        <mxCell id="NNuLc5NoA_AwvT8g1Wba-17" value="&lt;font style=&quot;font-size: 14px;&quot;&gt;提示验证码错误&lt;/font&gt;" style="whiteSpace=wrap;html=1;strokeWidth=2;" vertex="1" parent="1">
          <mxGeometry x="-130" y="660" width="120" height="60" as="geometry" />
        </mxCell>
        <mxCell id="NNuLc5NoA_AwvT8g1Wba-25" value="" style="edgeStyle=orthogonalEdgeStyle;rounded=0;orthogonalLoop=1;jettySize=auto;html=1;" edge="1" parent="1" source="NNuLc5NoA_AwvT8g1Wba-21" target="NNuLc5NoA_AwvT8g1Wba-24">
          <mxGeometry relative="1" as="geometry" />
        </mxCell>
        <mxCell id="NNuLc5NoA_AwvT8g1Wba-21" value="&lt;font style=&quot;font-size: 14px;&quot;&gt;将账号和密码发送到后端比对&lt;/font&gt;" style="whiteSpace=wrap;html=1;strokeWidth=2;" vertex="1" parent="1">
          <mxGeometry x="330" y="661.05" width="120" height="60" as="geometry" />
        </mxCell>
        <mxCell id="NNuLc5NoA_AwvT8g1Wba-28" value="" style="edgeStyle=orthogonalEdgeStyle;rounded=0;orthogonalLoop=1;jettySize=auto;html=1;" edge="1" parent="1" source="NNuLc5NoA_AwvT8g1Wba-24" target="NNuLc5NoA_AwvT8g1Wba-27">
          <mxGeometry relative="1" as="geometry" />
        </mxCell>
        <mxCell id="NNuLc5NoA_AwvT8g1Wba-29" value="&lt;font style=&quot;font-size: 14px;&quot;&gt;N&lt;/font&gt;" style="edgeLabel;html=1;align=center;verticalAlign=middle;resizable=0;points=[];" vertex="1" connectable="0" parent="NNuLc5NoA_AwvT8g1Wba-28">
          <mxGeometry x="-0.0844" relative="1" as="geometry">
            <mxPoint as="offset" />
          </mxGeometry>
        </mxCell>
        <mxCell id="NNuLc5NoA_AwvT8g1Wba-31" value="" style="edgeStyle=orthogonalEdgeStyle;rounded=0;orthogonalLoop=1;jettySize=auto;html=1;" edge="1" parent="1" source="NNuLc5NoA_AwvT8g1Wba-24" target="NNuLc5NoA_AwvT8g1Wba-30">
          <mxGeometry relative="1" as="geometry" />
        </mxCell>
        <mxCell id="NNuLc5NoA_AwvT8g1Wba-34" value="&lt;font style=&quot;font-size: 14px;&quot;&gt;Y&lt;/font&gt;" style="edgeLabel;html=1;align=center;verticalAlign=middle;resizable=0;points=[];" vertex="1" connectable="0" parent="NNuLc5NoA_AwvT8g1Wba-31">
          <mxGeometry x="-0.1733" y="-1" relative="1" as="geometry">
            <mxPoint as="offset" />
          </mxGeometry>
        </mxCell>
        <mxCell id="NNuLc5NoA_AwvT8g1Wba-24" value="&lt;span style=&quot;font-size: 14px;&quot;&gt;比对是否成功&lt;/span&gt;" style="rhombus;whiteSpace=wrap;html=1;strokeWidth=2;" vertex="1" parent="1">
          <mxGeometry x="320" y="820" width="140" height="80" as="geometry" />
        </mxCell>
        <mxCell id="NNuLc5NoA_AwvT8g1Wba-35" style="edgeStyle=orthogonalEdgeStyle;rounded=0;orthogonalLoop=1;jettySize=auto;html=1;exitX=0.5;exitY=0;exitDx=0;exitDy=0;entryX=1;entryY=0.5;entryDx=0;entryDy=0;" edge="1" parent="1" source="NNuLc5NoA_AwvT8g1Wba-27" target="NNuLc5NoA_AwvT8g1Wba-6">
          <mxGeometry relative="1" as="geometry" />
        </mxCell>
        <mxCell id="NNuLc5NoA_AwvT8g1Wba-27" value="&lt;font style=&quot;font-size: 14px;&quot;&gt;提示账号密码错误&lt;/font&gt;" style="whiteSpace=wrap;html=1;strokeWidth=2;" vertex="1" parent="1">
          <mxGeometry x="630" y="830" width="120" height="60" as="geometry" />
        </mxCell>
        <mxCell id="NNuLc5NoA_AwvT8g1Wba-30" value="&lt;font style=&quot;font-size: 14px;&quot;&gt;登录成功&lt;/font&gt;" style="whiteSpace=wrap;html=1;strokeWidth=2;" vertex="1" parent="1">
          <mxGeometry x="330" y="990" width="120" height="60" as="geometry" />
        </mxCell>
        <mxCell id="NNuLc5NoA_AwvT8g1Wba-32" value="&lt;font style=&quot;font-size: 14px;&quot;&gt;结束&lt;/font&gt;" style="strokeWidth=2;html=1;shape=mxgraph.flowchart.terminator;whiteSpace=wrap;" vertex="1" parent="1">
          <mxGeometry x="340" y="1130" width="100" height="60" as="geometry" />
        </mxCell>
        <mxCell id="NNuLc5NoA_AwvT8g1Wba-33" style="edgeStyle=orthogonalEdgeStyle;rounded=0;orthogonalLoop=1;jettySize=auto;html=1;exitX=0.5;exitY=1;exitDx=0;exitDy=0;entryX=0.5;entryY=0;entryDx=0;entryDy=0;entryPerimeter=0;" edge="1" parent="1" source="NNuLc5NoA_AwvT8g1Wba-30" target="NNuLc5NoA_AwvT8g1Wba-32">
          <mxGeometry relative="1" as="geometry" />
        </mxCell>
      </root>
    </mxGraphModel>
  </diagram>
</mxfile>
